<?xml version="1.0" encoding="UTF-8"?>
<svg id="Layer_2" data-name="Layer 2" xmlns="http://www.w3.org/2000/svg" viewBox="0 0 226.5 120.3">
  <defs>
    <style>
      .cls-1 {
        fill: #1f2123;
      }

      .cls-1, .cls-2, .cls-3, .cls-4 {
        stroke: #f1f3f4;
        stroke-miterlimit: 10;
        stroke-width: 2px;
      }

      .cls-2 {
        fill: #891f58;
      }

      .cls-3 {
        fill: #635b89;
      }

      .cls-4 {
        fill: #3b3c5d;
      }

      .cls-5 {
        fill: #f1f3f4;
        stroke-width: 0px;
      }
    </style>
  </defs>
  <g id="Layer_1-2" data-name="Layer 1">
    <path class="cls-1" d="M93,32.27c-1.2,1-3,.9-4.1-.2-3.3-3.4-7.2-6.1-11.5-8.2-13.3-6.3-28.9-4.9-40.7,3.6-1.3.9-3.1.7-4.1-.5l-8.3-10c-1.1-1.3-.9-3.3.5-4.3C42.2-.33,65.7-2.73,85.5,6.77c6.7,3.1,12.6,7.4,17.6,12.8,1.2,1.3,1.1,3.2-.3,4.4l-9.8,8.3Z"/>
    <path class="cls-4" d="M17.9,51.87l-12.8-2.6c-1.7-.3-2.8-2-2.3-3.7.9-3.7,2.3-7.3,3.9-10.8,2-4.2,4.5-8.3,7.6-12,1.1-1.3,3.1-1.5,4.3-.4l9.7,8.7c1.2,1.1,1.3,2.8.4,4.1-1.9,2.5-3.5,5.1-4.8,7.7-1.1,2.2-1.9,4.5-2.5,6.8-.4,1.5-1.9,2.5-3.5,2.2Z"/>
    <path class="cls-3" d="M10.9,92.87C4.5,83.17,1,71.87,1,60.37c0-1.7,1.4-3.1,3.2-3l13,.7c1.6.1,2.8,1.4,2.8,3,.2,7.3,2.4,14.5,6.4,20.8.9,1.3.6,3.1-.7,4.1l-10.5,7.7c-1.4,1-3.4.7-4.3-.8Z"/>
    <path class="cls-5" d="M102.1,38.17h.7c.9,0,1.7.7,1.7,1.7v39.3c0,.9-.7,1.7-1.7,1.7h-.7c-.9,0-1.7-.7-1.7-1.7v-39.3c.1-1,.8-1.7,1.7-1.7Z"/>
    <path class="cls-5" d="M108.5,39.77c0-.9.7-1.7,1.6-1.7h17c1.7,0,3.2.2,4.7.7,1.5.4,2.8,1.1,3.9,2s2,2.1,2.7,3.5,1,3.1,1,5c0,2.7-.7,5.1-2,7-1.3,2-3.3,3.3-5.9,3.8v.1c1.3.2,2.4.6,3.3,1.1s1.6,1.2,2.1,2.1c.5.8.9,1.8,1.2,2.9.2,1.1.4,2.3.5,3.6,0,.7.1,1.6.1,2.6s.1,2.1.2,3.1.3,2.1.5,3h0c.3,1.1-.4,2.2-1.5,2.2h-.7c-.7,0-1.3-.5-1.5-1.2,0-.1,0-.2-.1-.3-.1-.6-.2-1.2-.3-1.8-.1-.6-.1-1.2-.1-1.8s0-1.1-.1-1.6c-.1-1.5-.2-3-.4-4.5-.2-1.5-.5-2.9-1.1-4-.5-1.2-1.3-2.1-2.4-2.8-1-.7-2.5-1-4.3-1h-13.1c-.9,0-1.6.7-1.6,1.7v15.6c0,.9-.7,1.7-1.6,1.7h-.7c-.9,0-1.6-.7-1.6-1.7v-39.3h.2ZM112.3,56.77c0,.9.7,1.7,1.6,1.7h12.8c1.2,0,2.3-.2,3.3-.6,1.1-.4,2-.9,2.8-1.6.8-.7,1.4-1.6,1.9-2.6s.7-2.2.7-3.5c0-2.6-.7-4.7-2.2-6.2s-3.6-2.3-6.6-2.3h-12.8c-.9,0-1.6.7-1.6,1.7v13.4h.1Z"/>
    <path class="cls-5" d="M171.3,51.07c-.6,0-1.2-.5-1.4-1.2-.3-1.2-.8-2.3-1.3-3.2-.7-1.3-1.6-2.4-2.7-3.3-1.1-.9-2.2-1.5-3.5-2s-2.6-.7-4-.7c-2.5,0-4.7.5-6.6,1.6-1.8,1.1-3.3,2.5-4.5,4.3s-2,3.8-2.6,6c-.6,2.3-.8,4.5-.8,6.8s.3,4.6.8,6.9c.6,2.2,1.4,4.2,2.6,6s2.7,3.2,4.5,4.3,4,1.6,6.6,1.6c1.8,0,3.4-.4,4.8-1.1,1.5-.7,2.7-1.7,3.7-2.9s1.9-2.7,2.5-4.3c.5-1.3.8-2.6,1.1-4,.1-.8.7-1.3,1.5-1.3h.6c.9,0,1.6.9,1.5,2-.3,1.9-.8,3.6-1.4,5.1-.9,2.1-2,3.9-3.3,5.4-1.4,1.5-3,2.6-4.8,3.4-1.8.8-3.9,1.2-6.1,1.2-3,0-5.6-.6-7.9-1.8s-4.2-2.8-5.7-4.9c-1.5-2.1-2.6-4.4-3.4-7.1-.8-2.7-1.1-5.5-1.1-8.4s.4-5.7,1.1-8.4,1.9-5.1,3.4-7.1c1.5-2.1,3.4-3.7,5.7-4.9,2.3-1.2,4.9-1.8,7.9-1.8,1.8,0,3.6.3,5.3.9,1.7.6,3.3,1.5,4.7,2.7,1.4,1.2,2.6,2.6,3.5,4.3.6,1.2,1.1,2.5,1.5,3.9.2,1-.5,2-1.5,2h-.7Z"/>
    <path class="cls-5" d="M178.1,38.17h.7c.9,0,1.7.7,1.7,1.7v35.9c0,.9.7,1.7,1.7,1.7h20.6c.9,0,1.7.7,1.7,1.7v.1c0,.9-.7,1.7-1.7,1.7h-24.6c-.9,0-1.7-.7-1.7-1.7v-39.3c0-1.1.7-1.8,1.6-1.8Z"/>
    <path class="cls-5" d="M203.3,38.17h21.2c.9,0,1.7.7,1.7,1.7v.1c0,.9-.7,1.7-1.7,1.7h-17.2c-.9,0-1.7.7-1.7,1.7v12.1c0,.9.7,1.7,1.7,1.7h11.8c.9,0,1.7.7,1.7,1.7v.1c0,.9-.7,1.7-1.7,1.7h-11.8c-.9,0-1.7.7-1.7,1.7v13.5c0,.9.7,1.7,1.7,1.7h17.5c.9,0,1.7.7,1.7,1.7v.1c0,.9-.7,1.7-1.7,1.7h-21.5c-.9,0-1.7-.7-1.7-1.7v-39.3c0-1.2.7-1.9,1.7-1.9Z"/>
    <g>
      <path class="cls-2" d="M101.9,102.07c-21.6,22.1-58,22.9-80.9,2.6-1.3-1.1-1.3-3.1-.1-4.3,2.5-2.5,6.6-6.7,9-9.2,1.1-1.1,2.9-1.2,4.1-.2,10.1,9,28.5,11.9,38.4,5,5.8-3.7,6.1-14.6-.3-17.6-15.1-6.2-40.3-5.9-39.4-28.3-.9-26.2,37.5-31.6,51.1-13.5,1,1.3.8,3.1-.5,4.2l-5.2,4.3c-1.3,1.1-3.3.9-4.3-.4-7.9-10.6-33.6-6.2-27.6,9.6.1.3.3.6.4.8,3.9,4.9,11.2,5.2,16.9,6.9,6,1.8,12.1,3.1,17.1,6.4,5.5,3.5,16.1,22.4,21.5,30.1.9,1,.8,2.6-.2,3.6Z"/>
      <polygon class="cls-2" points="32 88.97 31.9 89.07 31.9 88.87 32 88.97"/>
    </g>
  </g>
</svg>